<svg width="208" height="208" viewBox="0 0 208 208" fill="none" xmlns="http://www.w3.org/2000/svg">
<g clip-path="url(#clip0_7_136)">
<rect width="208" height="208" rx="18" fill="#F7F7F7"/>
<mask id="mask0_7_136" style="mask-type:alpha" maskUnits="userSpaceOnUse" x="16" y="40" width="176" height="128">
<path fill-rule="evenodd" clip-rule="evenodd" d="M192 116.285C192 75.5444 153.798 40 104 40C43.9038 40 16 84.939 16 116.211C16 137.544 25.0338 167.967 104 168C182.966 168.033 192 137.618 192 116.285Z" fill="white"/>
</mask>
<g mask="url(#mask0_7_136)">
<rect x="127.799" y="116.225" width="72" height="72" rx="4" transform="rotate(-45 127.799 116.225)" stroke="black" stroke-width="4"/>
<path d="M134.87 106.326L126.385 97.8406H117" stroke="black" stroke-width="4"/>
<path d="M146.184 95.0122L137.698 86.5269L131.5 86.5269" stroke="black" stroke-width="4"/>
<path d="M157.497 83.6985L149.012 75.2132L145 71.201V55" stroke="black" stroke-width="4"/>
<path d="M168.811 72.3848L160.326 63.8995" stroke="black" stroke-width="4"/>
<path d="M168.811 160.066L160.326 168.551" stroke="black" stroke-width="4"/>
<path d="M157.497 148.752L149.012 157.238" stroke="black" stroke-width="4"/>
<path d="M146.184 137.439L137.698 145.924L130.122 153.5L130.122 162" stroke="black" stroke-width="4"/>
<path d="M134.87 126.125L126.385 134.61L117 134.61L107.11 144.5L95.5 144.5" stroke="black" stroke-width="4"/>
<circle cx="147.598" cy="116.225" r="6" transform="rotate(-45 147.598 116.225)" stroke="black" stroke-width="4"/>
<circle cx="114.657" cy="97.6568" r="3" transform="rotate(-45 114.657 97.6568)" stroke="black" stroke-width="2"/>
<circle cx="128.657" cy="86.6568" r="3" transform="rotate(-45 128.657 86.6568)" stroke="black" stroke-width="2"/>
<circle cx="92.6569" cy="144.657" r="3" transform="rotate(-45 92.6569 144.657)" stroke="black" stroke-width="2"/>
</g>
<path d="M104 44C152.057 44 188 78.1944 188 116.285C188 126.372 185.886 137.911 175.028 147.102C163.966 156.464 143.118 164.016 104.002 164C64.8859 163.983 44.0362 156.414 32.9734 147.041C22.1136 137.84 20 126.298 20 116.211C20 86.9794 46.278 44 104 44Z" stroke="black" stroke-width="8"/>
</g>
<defs>
<clipPath id="clip0_7_136">
<rect width="208" height="208" fill="white"/>
</clipPath>
</defs>
</svg>
