<?xml version="1.0" encoding="UTF-8" standalone="no"?>
<svg
   id="Layer_1"
   data-name="Layer 1"
   viewBox="0 0 200 200"
   version="1.1"
   sodipodi:docname="make_logo.svg"
   width="200"
   height="200"
   inkscape:version="1.3.2 (091e20e, 2023-11-25, custom)"
   xmlns:inkscape="http://www.inkscape.org/namespaces/inkscape"
   xmlns:sodipodi="http://sodipodi.sourceforge.net/DTD/sodipodi-0.dtd"
   xmlns="http://www.w3.org/2000/svg"
   xmlns:svg="http://www.w3.org/2000/svg"
   xmlns:rdf="http://www.w3.org/1999/02/22-rdf-syntax-ns#"
   xmlns:cc="http://creativecommons.org/ns#"
   xmlns:dc="http://purl.org/dc/elements/1.1/">
  <sodipodi:namedview
     id="namedview5"
     pagecolor="#505050"
     bordercolor="#eeeeee"
     borderopacity="1"
     inkscape:showpageshadow="0"
     inkscape:pageopacity="0"
     inkscape:pagecheckerboard="0"
     inkscape:deskcolor="#505050"
     inkscape:zoom="2.9583333"
     inkscape:cx="81.464789"
     inkscape:cy="121.01408"
     inkscape:window-width="1920"
     inkscape:window-height="1094"
     inkscape:window-x="-11"
     inkscape:window-y="-11"
     inkscape:window-maximized="1"
     inkscape:current-layer="Layer_1" />
  <defs
     id="defs1">
    <style
       id="style1">.cls-1{fill:#ea002a;}</style>
  </defs>
  <title
     id="title1">Make_logo_</title>
  <rect
     style="fill:#ffffff;stroke:none;stroke-width:6.13745;stroke-linejoin:round;stroke-miterlimit:10;fill-opacity:1"
     id="rect5"
     width="200"
     height="200"
     x="0"
     y="9.9527568e-16" />
  <g
     id="g5"
     transform="translate(-2.374649,-0.37080628)">
    <path
       class="cls-1"
       d="m 18.374648,75.495 h 14.24 l 10.93,36 h 0.13 l 10.2,-36 h 14.57 v 49 h -10.4 v -33.44 h -0.13 a 88.14,88.14 0 0 1 -2.72,10.93 l -7.35,22.52 h -9.54 l -7.28,-22.52 a 86.71,86.71 0 0 1 -2.85,-11.46 h -0.13 v 34 h -9.67 z"
       id="path1" />
    <path
       class="cls-1"
       d="m 71.214648,115.495 c 0,-8.15 6.89,-12.65 22.38,-13.91 v -0.86 c 0,-2.58 -1.32,-4.24 -4.77,-4.24 a 18.79,18.79 0 0 0 -11.59,4.37 l -4.5,-6.09 c 3.51,-3.18 8.81,-6.29 17.62,-6.29 9.670002,0 13.640002,4.77 13.640002,13.84 v 13.58 c 0,4.24 0.26,6.82 1,8.61 H 94.374648 a 17,17 0 0 1 -0.8,-5.17 15.6,15.6 0 0 1 -12.29,5.7 c -5.43,0 -10.07,-3.51 -10.07,-9.54 z m 22.38,-1.52 v -6.56 c -8.41,0.86 -12,3 -12,6.23 0,2.25 1.59,3.38 3.91,3.38 a 10.91,10.91 0 0 0 8.1,-3.05 z"
       id="path2" />
    <path
       class="cls-1"
       d="m 107.77465,75.495 h 10.66 v 26.89 l 11,-13.18 h 11.46 l -11.52,13.18 12.18,22.12 h -11 l -7.81,-14.37 -4.31,4.83 v 9.54 h -10.66 z"
       id="path3" />
    <path
       class="cls-1"
       d="m 138.76465,106.885 c 0,-13.71 10.46,-18.41 17.75,-18.41 7.29,0 16.22,3.66 16.22,19.66 v 1.6 h -23.36 c 0.53,5.83 3.78,8.08 8.21,8.08 a 16.23,16.23 0 0 0 10.46,-4.24 l 4.11,6.36 a 22.81,22.81 0 0 1 -15.36,5.3 c -9.23,0 -18.03,-4.71 -18.03,-18.35 z m 24.44,-3.45 c -0.53,-5 -2.78,-7.35 -6.75,-7.35 -3.31,0 -6.16,2.18 -7,7.35 z"
       id="path4" />
    <path
       class="cls-1"
       d="m 174.91465,89.205 h 11.46 v 10.26 h -11.46 z m 0,25 h 11.46 v 10.3 h -11.46 z"
       id="path5" />
  </g>
  <metadata
     id="metadata5">
    <rdf:RDF>
      <cc:Work
         rdf:about="">
        <dc:title>Make_logo_</dc:title>
      </cc:Work>
    </rdf:RDF>
  </metadata>
</svg>
