<?xml version="1.0" encoding="UTF-8"?>
<svg id="_レイヤー_1" data-name="レイヤー_1" xmlns="http://www.w3.org/2000/svg" version="1.1" viewBox="0 0 283.46 184.69">
  <!-- Generator: Adobe Illustrator 29.6.1, SVG Export Plug-In . SVG Version: 2.1.1 Build 9)  -->
  <defs>
    <style>
      .st0 {
        fill: #e8343a;
      }

      .st1 {
        fill: #50b560;
      }

      .st2 {
        fill: #9fa0a0;
      }
    </style>
  </defs>
  <g>
    <path d="M167.41,141.83h25.26v13.68h-20.21v4.53h20.21v4.59h-25.26v-13.71h20.21v-4.5h-20.21v-4.59Z"/>
    <path d="M197.1,141.83v22.8h25.26v-22.8M217.31,160.04h-15.16v-13.62h15.16v13.62Z"/>
    <path d="M226.79,141.83h25.26v13.68h-20.21v4.53h20.21v4.59h-25.26v-13.71h20.21v-4.5h-20.21v-4.59Z"/>
    <path d="M281.74,146.39h-20.21v4.59h20.21v13.65h-25.26v-4.56h20.21v-4.59h-20.21v-13.65h25.26v4.56Z"/>
  </g>
  <g>
    <path id="path588" d="M164.94,33.6l-12.48-12.73c-.66-.6-1.83-.73-2.61-.3l-15.96,8.86c-.78.43-2.03.41-2.79-.05l-4.31-2.45c-.78-.42-1.45-1.49-1.48-2.37l-.66-18.31c-.03-.89-.75-1.82-1.6-2.08L105.75.03c-.87-.16-1.93.35-2.35,1.14l-8.59,15.98c-.42.78-1.13,1.42-1.58,1.41h-.41c-2.49,0-5.77.25-5.77.25-.89.07-2.03-.48-2.53-1.21l-10.49-15.11c-.51-.73-1.62-1.13-2.48-.9l-16.51,5.57c-.82.33-1.44,1.32-1.37,2.21l1.41,17.97c.07.88-.48,2-1.23,2.48l-5.25,3.64c-.71.53-1.97.69-2.79.34l-17-7.04c-.82-.34-1.98-.08-2.57.58l-10.6,13.14c-.52.72-.51,1.89.03,2.6l10.84,14.28c.54.7.67,1.94.3,2.75l-2.95,7.06c-.31.83-1.28,1.64-2.16,1.8l-18.04,3.26c-.87.16-1.7,1-1.84,1.88L0,89.38c-.11.99.68,2.65,1.44,2.94l16.95,6.33c.83.31,1.62,1.27,1.74,2.15l1.58,8.61c.2.86-.17,2.07-.82,2.68l-13.33,12.42c-.65.6-.88,1.76-.51,2.57l7.27,14.1c.45.77,1.52,1.24,2.39,1.04l17.56-3.95c.87-.19,2.06.19,2.64.86l6.47,6.73c.64.61.99,1.82.77,2.68l-4.47,17.53c-.22.86.21,1.95.97,2.43l13.71,7.73c.79.4,1.96.2,2.58-.43l12.71-12.89c.62-.63,1.84-.96,2.69-.73l9.04,2.01c.87.16,1.82.97,2.1,1.82l5.67,17.04c.33,1.01,1.45,1.65,2.8,1.65,5.45,0,15.25-1.22,15.25-1.22.88-.11,1.75-.92,1.93-1.79l3.76-17.85c.18-.87,1.02-1.81,1.86-2.09l7.95-3.02c.82-.35,2.05-.18,2.74.38l13.95,11.24c.69.56,1.86.6,2.59.11l13.1-9.93c.68-.57.97-1.72.66-2.55l-6.53-17.16c-.32-.83-.12-2.08.43-2.78l.33-.45h-28c-9.17,5.96-20.26,9.21-32.13,8.63-27.77-1.37-50.22-24.08-51.29-51.87-1.19-30.84,23.45-56.22,54.02-56.22,14.66,0,27.96,5.84,37.69,15.31h25.31c-.03-.57.08-1.16.34-1.59l9.26-15.62c.45-.77.35-1.94-.24-2.61"/>
    <g>
      <path id="path590" d="M87.91,122.56v5.57l-5.46-3.87v-1.7h-2.44v10.34h2.44v-5.56l5.46,3.87v1.68h2.33l.11.08v-10.42h-2.44Z"/>
      <path id="path592" d="M94.8,125h5.46v3.49h-5.46v-3.49ZM102.7,122.56h-10.34v10.34h2.44v-1.98h5.46v1.98h2.44v-10.34Z"/>
      <path id="path594" d="M112.61,122.56v5.57l-5.46-3.87v-1.7h-2.44v10.34h2.44v-5.56l5.46,3.87v1.68h2.33l.11.08v-10.42h-2.44Z"/>
      <path id="path596" d="M127.91,132.9l-2.96-5.05,2.89-5.29h-2.72l-2.38,3.95h-3.24v-3.95h-2.44v10.34h2.44v-3.95h3.22l2.41,3.95h2.78Z"/>
      <path id="path598" d="M132.36,125h5.46v3.49h-5.46v-3.49ZM140.26,122.56h-10.34v10.34h2.44v-1.98h5.46v1.98h2.44v-10.34Z"/>
      <path id="path600" d="M152,122.56v2.44h3.95v7.9h2.44v-7.9h3.95v-2.44h-10.34Z"/>
      <path id="path602" d="M166.79,122.56h-2.44v10.34h10.34v-10.34h-2.44v7.9h-5.46v-7.9Z"/>
      <path id="path604" d="M187.55,132.9l-2.96-5.05,2.89-5.29h-2.72l-2.38,3.95h-3.24v-3.95h-2.44v10.34h2.44v-3.95h3.22l2.41,3.95h2.78Z"/>
      <path id="path606" d="M192,122.56h-2.44v10.34h10.34v-10.34h-2.44v7.9h-5.46v-7.9Z"/>
      <path id="path608" d="M201.91,122.56v2.44h3.95v7.9h2.44v-7.9h3.95v-2.44h-10.34Z"/>
      <path id="path610" d="M214.26,122.56v2.44h3.95v7.9h2.44v-7.9h3.95v-2.44h-10.34Z"/>
      <path id="path612" d="M236.95,125v-2.44h-10.34v10.34h10.34v-2.44h-7.9v-1.51h7.9v-2.44h-7.9v-1.51h7.9Z"/>
      <path id="path614" d="M253.24,122.56h-14.28v10.34h2.44v-7.9l3.49.02v7.89h2.44v-7.89l3.49-.02v7.9h2.44v-10.34Z"/>
      <path id="path616" d="M257.7,122.56h-2.44v10.34h2.44v-10.34Z"/>
      <path id="path618" d="M259.71,122.56v2.44h3.95v7.9h2.44v-7.9h3.95v-2.44h-10.34Z"/>
      <path id="path620" d="M274.5,125h5.46v3.49h-5.46v-3.49ZM282.4,122.56h-10.34v10.34h2.44v-1.98h5.46v1.98h2.44v-10.34Z"/>
    </g>
    <g>
      <path id="path634" d="M106.84,102.33l-35.22-29.23v-4.54l35.22,29.36v4.41ZM106.45,62.42v28.39l-34.62-28.39h-5.77v53.98h5.47v-33.15l40.33,34.88v-55.71h-5.41Z"/>
      <path id="path636" d="M116.38,63.9v4.76h15.94v49.22h3.41v-48.83h3.49v48.83h11.19v-49.22h15.53v-4.76h-49.55Z"/>
      <g>
        <path id="path622" class="st2" d="M188.03,64.5h3.49v-1.71h-3.49v1.71Z"/>
        <path id="path624" class="st2" d="M201.7,64.5h3.49v-1.71h-3.49v1.71Z"/>
        <path id="path626" class="st2" d="M202.79,54.58h5.03v-1.48h-5.03v1.48Z"/>
        <path id="path627" class="st2" d="M185.4,54.58h5.03v-1.48h-5.03v1.48Z"/>
        <path id="path628" class="st0" d="M190.43,54.58h12.36v-8.75h-12.36v8.75Z"/>
        <path id="path630" d="M189.84,87.53h-4.46v6.72h4.46v-6.72ZM189.84,76.76h-4.46v6.25h4.46v-6.25ZM207.92,87.53h-4.46v6.72h4.46v-6.72ZM207.92,76.76h-4.46v6.25h4.46v-6.25ZM223.74,64.5v4.52h-18.38v3.22h16.48v26.49h-16.48v2.14h11.72l8.74,15.71h-14.34l-6.78-14.11.65,15.59h-17.49l.65-15.59-6.72,14.11h-14.4l8.74-15.71h11.72v-2.14h-16.48v-26.49h16.48v-3.22h-18.38v-4.52h54.25Z"/>
        <path id="path632" d="M185.4,62.79h22.41v-8.21h-22.41v8.21Z"/>
      </g>
      <g>
        <path id="path638" d="M264.43,77.36h-17.43v13.09h17.43v-13.09ZM245.16,118.01l-2.2-8.93-1.61,6.61h-13.44l4.7-17.67h13.03l-1.96,8.15h4.52v-11.19h-16v-22.14h47.23v22.14h-14.52v23.03h-19.75ZM269.96,115.69l-3.39-17.68h13.27l3.63,17.68h-13.5ZM283.46,64.92v4.64h-55.56v-4.64h55.56Z"/>
        <path id="path640" class="st2" d="M249.46,64.92h3.49v-2.13h-3.49v2.13Z"/>
        <path id="path642" class="st2" d="M258.78,64.92h3.49v-2.13h-3.49v2.13Z"/>
        <path id="path644" class="st1" d="M264.75,48.6c0-4.91-3.98-8.89-8.89-8.89s-8.89,3.98-8.89,8.89M243.82,62.79h24.08v-4.46h-24.08v4.46ZM246.97,48.6h17.78v9.72h-17.78v-9.72Z"/>
      </g>
    </g>
  </g>
</svg>