<svg width="128" height="128" viewBox="0 0 128 128" fill="none" xmlns="http://www.w3.org/2000/svg">
<g clip-path="url(#clip0_2233_2)">
<path d="M74.8714 84.899H85.5649V90.6764H77.0092V92.5896H85.5649V94.5281H74.8714V88.7379H83.4271V86.8375H74.8714V84.899Z" fill="black"/>
<path d="M87.4403 84.899V94.5281H98.1339V84.899M95.996 92.5896H89.5782V86.8375H95.996V92.5896Z" fill="black"/>
<path d="M100.009 84.899H110.703V90.6764H102.147V92.5896H110.703V94.5281H100.009V88.7379H108.565V86.8375H100.009V84.899Z" fill="black"/>
<path d="M123.272 86.8248H114.716V88.7633H123.272V94.5281H112.578V92.6023H121.134V90.6638H112.578V84.899H123.272V86.8248Z" fill="black"/>
<path d="M73.8254 39.1903L68.5422 33.814C68.2627 33.5606 67.7674 33.5057 67.4372 33.6873L60.6807 37.4292C60.3505 37.6108 59.8213 37.6023 59.4996 37.4081L57.675 36.3733C57.3448 36.196 57.0612 35.7441 57.0485 35.3724L56.7691 27.6396C56.7564 27.2637 56.4516 26.8709 56.0917 26.7611L48.7679 25.0127C48.3996 24.9451 47.9509 25.1605 47.7731 25.4941L44.1366 32.243C43.9588 32.5724 43.6582 32.8427 43.4677 32.8384H43.2941C42.24 32.8384 40.8515 32.944 40.8515 32.944C40.4747 32.9736 39.9921 32.7413 39.7804 32.433L35.3396 26.0516C35.1237 25.7433 34.6538 25.5744 34.2897 25.6715L27.3004 28.0239C26.9532 28.1633 26.6907 28.5814 26.7204 28.9572L27.3173 36.5465C27.3469 36.9182 27.1141 37.3912 26.7966 37.5939L24.574 39.1312C24.2735 39.355 23.7401 39.4226 23.3929 39.2747L16.1961 36.3015C15.849 36.158 15.3579 36.2678 15.1082 36.5465L10.6207 42.0959C10.4006 42.4 10.4048 42.8941 10.6334 43.194L15.2225 49.2248C15.4511 49.5205 15.5061 50.0441 15.3495 50.3862L14.1006 53.3679C13.9694 53.7184 13.5587 54.0605 13.1862 54.1281L5.54913 55.5049C5.18083 55.5724 4.82946 55.9272 4.77019 56.2988L3.99971 62.7478C3.95314 63.1659 4.28758 63.867 4.60932 63.9895L11.7849 66.6628C12.1363 66.7937 12.4707 67.1992 12.5215 67.5708L13.1904 71.2071C13.2751 71.5703 13.1185 72.0813 12.8433 72.3389L7.20016 77.5842C6.92499 77.8376 6.82762 78.3275 6.98426 78.6696L10.0619 84.6245C10.2524 84.9497 10.7054 85.1482 11.0737 85.0637L18.5076 83.3955C18.8759 83.3152 19.3797 83.4757 19.6252 83.7587L22.3642 86.601C22.6351 86.8586 22.7833 87.3696 22.6902 87.7328L20.7978 95.1362C20.7047 95.4994 20.8867 95.9598 21.2085 96.1625L27.0125 99.4271C27.3469 99.596 27.8422 99.5116 28.1047 99.2455L33.4854 93.8017C33.7478 93.5356 34.2643 93.3962 34.6241 93.4934L38.4511 94.3423C38.8194 94.4098 39.2216 94.7519 39.3401 95.1109L41.7405 102.307C41.8802 102.734 42.3543 103.004 42.9258 103.004C45.233 103.004 49.3818 102.489 49.3818 102.489C49.7543 102.443 50.1226 102.1 50.1988 101.733L51.7906 94.1944C51.8668 93.827 52.2224 93.43 52.578 93.3118L55.9435 92.0363C56.2907 91.8885 56.8114 91.9603 57.1035 92.1968L63.0091 96.9438C63.3012 97.1803 63.7965 97.1972 64.1055 96.9903L69.6513 92.7965C69.9392 92.5558 70.0619 92.0701 69.9307 91.7196L67.1663 84.4724C67.0308 84.1219 67.1155 83.594 67.3483 83.2983L67.488 83.1083H55.6345C51.7525 85.6254 47.0576 86.998 42.0326 86.753C30.2764 86.1744 20.7724 76.5833 20.3195 64.8468C19.8157 51.8222 30.2468 41.1034 43.1883 41.1034C49.3945 41.1034 55.0249 43.5698 59.144 47.5693H69.8587C69.846 47.3286 69.8926 47.0794 70.0027 46.8978L73.9228 40.301C74.1133 39.9758 74.071 39.4817 73.8212 39.1987" fill="black"/>
<path d="M41.2158 76.7607V79.1131L38.9044 77.4786V76.7607H37.8714V81.1276H38.9044V78.7794L41.2158 80.4138V81.1233H42.2022L42.2488 81.1571V76.7565H41.2158V76.7607Z" fill="black"/>
<path d="M44.1327 77.7912H46.4441V79.2651H44.1327V77.7912ZM47.477 76.7607H43.0997V81.1276H44.1327V80.2914H46.4441V81.1276H47.477V76.7607Z" fill="black"/>
<path d="M51.6723 76.7607V79.1131L49.3609 77.4786V76.7607H48.3279V81.1276H49.3609V78.7794L51.6723 80.4138V81.1233H52.6587L52.7053 81.1571V76.7565H51.6723V76.7607Z" fill="black"/>
<path d="M58.1494 81.1276L56.8964 78.9948L58.1198 76.7607H56.9683L55.9608 78.4289H54.5891V76.7607H53.5562V81.1276H54.5891V79.4594H55.9523L56.9726 81.1276H58.1494Z" fill="black"/>
<path d="M60.0333 77.7912H62.3447V79.2651H60.0333V77.7912ZM63.3777 76.7607H59.0004V81.1276H60.0333V80.2914H62.3447V81.1276H63.3777V76.7607Z" fill="black"/>
<path d="M68.3477 76.7607V77.7912H70.0199V81.1276H71.0528V77.7912H72.725V76.7607H68.3477Z" fill="black"/>
<path d="M74.6089 76.7607H73.576V81.1276H77.9533V76.7607H76.9203V80.0971H74.6089V76.7607Z" fill="black"/>
<path d="M83.3974 81.1276L82.1444 78.9948L83.3678 76.7607H82.2163L81.2088 78.4289H79.8372V76.7607H78.8042V81.1276H79.8372V79.4594H81.2003L82.2206 81.1276H83.3974Z" fill="black"/>
<path d="M85.2813 76.7607H84.2484V81.1276H88.6257V76.7607H87.5927V80.0971H85.2813V76.7607Z" fill="black"/>
<path d="M89.4766 76.7607V77.7912H91.1488V81.1276H92.1818V77.7912H93.854V76.7607H89.4766Z" fill="black"/>
<path d="M94.7049 76.7607V77.7912H96.3771V81.1276H97.41V77.7912H99.0822V76.7607H94.7049Z" fill="black"/>
<path d="M104.31 77.7912V76.7607H99.9331V81.1276H104.31V80.0971H100.966V79.4594H104.31V78.4289H100.966V77.7912H104.31Z" fill="black"/>
<path d="M111.207 76.7607H105.161V81.1276H106.194V77.7912L107.672 77.7996V81.1318H108.705V77.7996L110.182 77.7912V81.1276H111.215V76.7607H111.207Z" fill="black"/>
<path d="M113.095 76.7607H112.062V81.1276H113.095V76.7607Z" fill="black"/>
<path d="M113.946 76.7607V77.7912H115.618V81.1276H116.651V77.7912H118.323V76.7607H113.946Z" fill="black"/>
<path d="M120.207 77.7912H122.518V79.2651H120.207V77.7912ZM123.551 76.7607H119.174V81.1276H120.207V80.2914H122.518V81.1276H123.551V76.7607Z" fill="black"/>
<path d="M49.2297 68.217L34.3196 55.8723V53.9549L49.2297 66.3545V68.217ZM49.0646 51.3618V63.3517L34.4085 51.3618H31.9659V74.1591H34.2815V60.1589L51.3548 74.8898V51.3618H49.0646Z" fill="black"/>
<path d="M53.2683 51.9868V53.9971H60.0164V74.7842H61.46V54.1618H62.9374V74.7842H67.6746V53.9971H74.2491V51.9868H53.2726H53.2683Z" fill="black"/>
<path d="M83.6007 52.2402H85.0781V51.5181H83.6007V52.2402Z" fill="#9FA0A0"/>
<path d="M89.3877 52.2402H90.8652V51.5181H89.3877V52.2402Z" fill="#9FA0A0"/>
<path d="M89.8492 48.0507H91.9786V47.4257H89.8492V48.0507Z" fill="#9FA0A0"/>
<path d="M82.4873 48.0507H84.6167V47.4257H82.4873V48.0507Z" fill="#9FA0A0"/>
<path d="M84.6167 48.0507H89.8492V44.3554H84.6167V48.0507Z" fill="#E8343A"/>
<path d="M84.3669 61.9665H82.4788V64.8045H84.3669V61.9665ZM84.3669 57.418H82.4788V60.0576H84.3669V57.418ZM92.0209 61.9665H90.1328V64.8045H92.0209V61.9665ZM92.0209 57.418H90.1328V60.0576H92.0209V57.418ZM98.7181 52.2402V54.1492H90.9371V55.5091H97.9138V66.6966H90.9371V67.6004H95.8987L99.5987 74.2352H93.528L90.6577 68.2761L90.9329 74.8602H83.5287L83.8039 68.2761L80.959 74.2352H74.8629L78.5629 67.6004H83.5245V66.6966H76.5478V55.5091H83.5245V54.1492H75.7435V52.2402H98.7097H98.7181Z" fill="black"/>
<path d="M82.4873 51.5181H91.9743V48.0507H82.4873V51.5181Z" fill="black"/>
<path d="M115.944 57.6714H108.565V63.1997H115.944V57.6714ZM107.786 74.8391L106.855 71.0677L106.173 73.8593H100.483L102.473 66.3967H107.989L107.16 69.8387H109.073V65.1128H102.3V55.7625H122.294V65.1128H116.147V74.8391H107.786ZM118.285 73.8593L116.85 66.3925H122.468L124.004 73.8593H118.289H118.285ZM124 52.4176V54.3772H100.479V52.4176H124Z" fill="black"/>
<path d="M109.606 52.4176H111.084V51.5181H109.606V52.4176Z" fill="#9FA0A0"/>
<path d="M113.552 52.4176H115.029V51.5181H113.552V52.4176Z" fill="#9FA0A0"/>
<path d="M116.079 45.5252C116.079 43.4516 114.394 41.7707 112.316 41.7707C110.237 41.7707 108.552 43.4516 108.552 45.5252M107.219 51.5181H117.413V49.6345H107.219V51.5181ZM108.552 45.5252H116.079V49.6302H108.552V45.5252Z" fill="#50B560"/>
</g>
<defs>
<clipPath id="clip0_2233_2">
<rect width="120" height="78" fill="white" transform="translate(4 25)"/>
</clipPath>
</defs>
</svg>
