<svg width="24" height="24" viewBox="0 0 24 24" fill="none" xmlns="http://www.w3.org/2000/svg">
<path d="M16.2755 17.631C16.1589 17.631 16.0635 17.5939 15.9893 17.5197C15.9151 17.4455 15.878 17.3501 15.878 17.2335V8.99652H13.0475C12.9309 8.99652 12.8355 8.95942 12.7613 8.88521C12.6871 8.8004 12.65 8.705 12.65 8.59899V6.89754C12.65 6.78093 12.6871 6.68552 12.7613 6.61131C12.8355 6.5371 12.9309 6.5 13.0475 6.5H21.6025C21.7191 6.5 21.8145 6.5371 21.8887 6.61131C21.9629 6.68552 22 6.78093 22 6.89754V8.59899C22 8.705 21.9629 8.8004 21.8887 8.88521C21.8145 8.95942 21.7191 8.99652 21.6025 8.99652H18.772V17.2335C18.772 17.3501 18.7349 17.4455 18.6607 17.5197C18.5865 17.5939 18.4911 17.631 18.3745 17.631H16.2755Z" fill="black"/>
<path d="M2.39754 17.631C2.28093 17.631 2.18552 17.5939 2.11131 17.5197C2.0371 17.4455 2 17.3501 2 17.2335V6.89754C2 6.78093 2.0371 6.68552 2.11131 6.61131C2.18552 6.5371 2.28093 6.5 2.39754 6.5H4.08309C4.2633 6.5 4.39051 6.5424 4.46472 6.62721C4.54953 6.70142 4.60253 6.75972 4.62373 6.80213L8.50368 12.9242V6.89754C8.50368 6.78093 8.54078 6.68552 8.61499 6.61131C8.68919 6.5371 8.7846 6.5 8.90121 6.5H10.8094C10.926 6.5 11.0214 6.5371 11.0956 6.61131C11.1698 6.68552 11.2069 6.78093 11.2069 6.89754V17.2335C11.2069 17.3395 11.1698 17.4349 11.0956 17.5197C11.0214 17.5939 10.926 17.631 10.8094 17.631H9.10793C8.93832 17.631 8.81111 17.5886 8.7263 17.5038C8.65209 17.419 8.60439 17.3607 8.58318 17.3289L4.70324 11.4453V17.2335C4.70324 17.3501 4.66614 17.4455 4.59193 17.5197C4.51772 17.5939 4.42232 17.631 4.3057 17.631H2.39754Z" fill="black"/>
</svg>
