<?xml version="1.0" encoding="UTF-8" standalone="no"?>
<svg
   id="_レイヤー_1"
   data-name="レイヤー 1"
   version="1.1"
   viewBox="0 0 399.99998 399.99999"
   sodipodi:docname="NT_tokyo_2024_logo.svg"
   width="400"
   height="400"
   inkscape:version="1.3.2 (091e20e, 2023-11-25, custom)"
   xmlns:inkscape="http://www.inkscape.org/namespaces/inkscape"
   xmlns:sodipodi="http://sodipodi.sourceforge.net/DTD/sodipodi-0.dtd"
   xmlns="http://www.w3.org/2000/svg"
   xmlns:svg="http://www.w3.org/2000/svg">
  <sodipodi:namedview
     id="namedview5"
     pagecolor="#505050"
     bordercolor="#eeeeee"
     borderopacity="1"
     inkscape:showpageshadow="0"
     inkscape:pageopacity="0"
     inkscape:pagecheckerboard="0"
     inkscape:deskcolor="#505050"
     inkscape:zoom="0.95974532"
     inkscape:cx="148.99786"
     inkscape:cy="277.15686"
     inkscape:window-width="1920"
     inkscape:window-height="1094"
     inkscape:window-x="-11"
     inkscape:window-y="-11"
     inkscape:window-maximized="1"
     inkscape:current-layer="_レイヤー_1" />
  <defs
     id="defs1">
    <style
       id="style1">
      .cls-1 {
        fill: #000;
      }

      .cls-1, .cls-2, .cls-3, .cls-4 {
        stroke-width: 0px;
      }

      .cls-5 {
        isolation: isolate;
      }

      .cls-2 {
        fill: #e8343a;
      }

      .cls-3 {
        fill: #9fa0a0;
      }

      .cls-4 {
        fill: #50b560;
      }
    </style>
  </defs>
  <g
     class="cls-5"
     id="g4"
     transform="matrix(1.2700205,0,0,1.2700205,-178.0216,-334.61554)">
    <path
       class="cls-1"
       d="m 342.62,493.38 v -2.94 c 1.98,-1.86 3.72,-3.55 5.22,-5.08 1.5,-1.53 2.67,-2.93 3.51,-4.21 0.84,-1.28 1.27,-2.46 1.27,-3.56 0,-0.76 -0.13,-1.4 -0.38,-1.91 -0.25,-0.52 -0.63,-0.91 -1.12,-1.19 -0.49,-0.28 -1.09,-0.41 -1.79,-0.41 -0.82,0 -1.57,0.24 -2.25,0.73 -0.68,0.49 -1.31,1.02 -1.9,1.61 l -2.82,-2.78 c 1.12,-1.18 2.26,-2.07 3.43,-2.67 1.17,-0.6 2.58,-0.9 4.22,-0.9 1.5,0 2.81,0.3 3.94,0.89 1.13,0.59 2.01,1.43 2.64,2.52 0.63,1.09 0.95,2.37 0.95,3.85 0,1.29 -0.36,2.61 -1.08,3.96 -0.72,1.35 -1.65,2.7 -2.78,4.05 -1.14,1.35 -2.35,2.69 -3.64,4.02 0.59,-0.06 1.24,-0.13 1.96,-0.19 0.72,-0.06 1.35,-0.1 1.9,-0.1 h 4.72 v 4.34 h -16.01 z"
       id="path1" />
    <path
       class="cls-1"
       d="m 371.33,493.83 c -1.62,0 -3.05,-0.46 -4.27,-1.38 -1.22,-0.92 -2.17,-2.26 -2.85,-4.03 -0.68,-1.77 -1.01,-3.97 -1.01,-6.58 0,-2.61 0.34,-4.76 1.01,-6.5 0.67,-1.74 1.62,-3.05 2.85,-3.94 1.22,-0.89 2.65,-1.33 4.27,-1.33 1.62,0 3.07,0.44 4.29,1.33 1.21,0.89 2.16,2.2 2.83,3.94 0.67,1.74 1.01,3.91 1.01,6.5 0,2.59 -0.34,4.81 -1.01,6.58 -0.67,1.77 -1.62,3.12 -2.83,4.03 -1.21,0.92 -2.64,1.38 -4.29,1.38 z m 0,-4.02 c 0.63,0 1.19,-0.23 1.68,-0.68 0.49,-0.45 0.87,-1.26 1.16,-2.42 0.29,-1.16 0.43,-2.78 0.43,-4.87 0,-2.09 -0.14,-3.7 -0.43,-4.83 -0.28,-1.13 -0.67,-1.9 -1.16,-2.33 -0.49,-0.42 -1.04,-0.63 -1.68,-0.63 -0.64,0 -1.17,0.21 -1.66,0.63 -0.5,0.42 -0.89,1.2 -1.19,2.33 -0.3,1.13 -0.44,2.74 -0.44,4.83 0,2.09 0.15,3.71 0.44,4.87 0.3,1.16 0.69,1.97 1.19,2.42 0.5,0.45 1.05,0.68 1.66,0.68 z"
       id="path2" />
    <path
       class="cls-1"
       d="m 383.7,493.38 v -2.94 c 1.98,-1.86 3.72,-3.55 5.22,-5.08 1.5,-1.53 2.67,-2.93 3.51,-4.21 0.84,-1.28 1.27,-2.46 1.27,-3.56 0,-0.76 -0.13,-1.4 -0.38,-1.91 -0.25,-0.52 -0.63,-0.91 -1.12,-1.19 -0.49,-0.28 -1.09,-0.41 -1.79,-0.41 -0.82,0 -1.57,0.24 -2.25,0.73 -0.68,0.49 -1.31,1.02 -1.9,1.61 l -2.82,-2.78 c 1.12,-1.18 2.26,-2.07 3.43,-2.67 1.17,-0.6 2.58,-0.9 4.22,-0.9 1.5,0 2.81,0.3 3.94,0.89 1.13,0.59 2.01,1.43 2.64,2.52 0.63,1.09 0.95,2.37 0.95,3.85 0,1.29 -0.36,2.61 -1.08,3.96 -0.72,1.35 -1.65,2.7 -2.78,4.05 -1.14,1.35 -2.35,2.69 -3.64,4.02 0.59,-0.06 1.24,-0.13 1.96,-0.19 0.72,-0.06 1.35,-0.1 1.9,-0.1 h 4.72 v 4.34 h -16.01 z"
       id="path3" />
    <path
       class="cls-1"
       d="m 413.54,493.38 v -13.39 c 0,-0.72 0.03,-1.57 0.08,-2.55 0.05,-0.98 0.09,-1.83 0.11,-2.55 h -0.13 c -0.3,0.63 -0.6,1.27 -0.92,1.91 -0.32,0.64 -0.64,1.29 -0.98,1.95 l -3.16,5.16 h 12.47 v 3.96 H 403.6 v -3.58 l 8.45,-13.83 h 6.27 v 22.91 h -4.78 z"
       id="path4" />
  </g>
  <g
     id="g5"
     transform="matrix(1.2700205,0,0,1.2700205,-178.0216,-334.61554)">
    <path
       id="path588"
       class="cls-1"
       d="m 320.83,362.22 -12.49,-12.73 c -0.66,-0.6 -1.83,-0.73 -2.61,-0.3 l -15.97,8.86 c -0.78,0.43 -2.03,0.41 -2.79,-0.05 l -4.31,-2.45 c -0.78,-0.42 -1.45,-1.49 -1.48,-2.37 l -0.66,-18.31 c -0.03,-0.89 -0.75,-1.82 -1.6,-2.08 l -17.29,-4.14 c -0.87,-0.16 -1.93,0.35 -2.35,1.14 l -8.59,15.99 c -0.42,0.78 -1.13,1.42 -1.58,1.41 h -0.41 c -2.49,0 -5.77,0.25 -5.77,0.25 -0.89,0.07 -2.03,-0.48 -2.53,-1.21 l -10.5,-15.11 c -0.51,-0.73 -1.62,-1.13 -2.48,-0.9 l -16.52,5.57 c -0.82,0.33 -1.44,1.32 -1.37,2.21 l 1.41,17.97 c 0.07,0.88 -0.48,2 -1.23,2.48 l -5.25,3.64 c -0.71,0.53 -1.97,0.69 -2.79,0.34 l -17,-7.04 c -0.82,-0.34 -1.98,-0.08 -2.57,0.58 l -10.6,13.15 c -0.52,0.72 -0.51,1.89 0.03,2.6 l 10.84,14.29 c 0.54,0.7 0.67,1.94 0.3,2.75 l -2.95,7.06 c -0.31,0.83 -1.28,1.64 -2.16,1.8 l -18.04,3.26 c -0.87,0.16 -1.7,1 -1.84,1.88 0,0 -1.76,11.09 -1.76,17.72 v 0.03 c 0,0 0.68,0.32 1.52,0.63 l 16.84,6.15 c 0.83,0.31 1.62,1.27 1.74,2.16 l 1.58,8.61 c 0.2,0.87 -0.17,2.07 -0.82,2.68 l -13.33,12.42 c -0.65,0.6 -0.88,1.76 -0.51,2.57 l 7.27,14.1 c 0.45,0.77 1.52,1.24 2.39,1.04 l 17.56,-3.95 c 0.87,-0.19 2.06,0.19 2.64,0.86 l 6.47,6.73 c 0.64,0.61 0.99,1.82 0.77,2.68 l -4.47,17.53 c -0.22,0.86 0.21,1.96 0.97,2.43 l 13.71,7.73 c 0.8,0.4 1.96,0.2 2.58,-0.43 l 12.72,-12.9 c 0.62,-0.63 1.84,-0.96 2.69,-0.73 l 9.04,2.01 c 0.88,0.16 1.82,0.97 2.1,1.82 l 5.67,17.04 c 0.28,0.84 1.24,1.55 2.13,1.58 0,0 0.48,0.01 1.53,0.01 5.45,0 14.39,-1.17 14.39,-1.17 0.88,-0.11 1.75,-0.92 1.93,-1.79 l 3.76,-17.85 c 0.18,-0.87 1.02,-1.81 1.86,-2.09 l 7.96,-3.02 c 0.82,-0.35 2.05,-0.18 2.74,0.38 l 13.96,11.25 c 0.69,0.56 1.86,0.6 2.59,0.11 l 13.1,-9.94 c 0.68,-0.57 0.97,-1.72 0.66,-2.55 l -6.53,-17.16 c -0.32,-0.83 -0.12,-2.08 0.43,-2.78 l 0.33,-0.45 h -28 c -8.47,5.5 -18.56,8.69 -29.41,8.69 -29.86,0 -54.07,-24.22 -54.07,-54.08 0,-29.86 24.21,-54.09 54.07,-54.09 14.66,0 27.96,5.84 37.7,15.32 h 25.31 c -0.03,-0.57 0.08,-1.16 0.34,-1.59 l 9.27,-15.63 c 0.45,-0.77 0.35,-1.94 -0.24,-2.61" />
    <path
       id="path590"
       class="cls-1"
       d="m 243.78,451.19 v 5.57 l -5.46,-3.87 v -1.7 h -2.44 v 10.34 h 2.44 v -5.56 l 5.46,3.87 v 1.68 h 2.33 l 0.11,0.08 v -10.42 h -2.44 z" />
    <path
       id="path592"
       class="cls-1"
       d="m 250.68,453.63 h 5.46 v 3.49 h -5.46 z m 7.9,-2.44 h -10.34 v 10.34 h 2.44 v -1.98 h 5.46 v 1.98 h 2.44 z" />
    <path
       id="path594"
       class="cls-1"
       d="m 268.49,451.19 v 5.57 l -5.46,-3.87 v -1.7 h -2.44 v 10.34 h 2.44 v -5.56 l 5.46,3.87 v 1.68 h 2.33 l 0.11,0.08 v -10.42 h -2.44 z" />
    <path
       id="path596"
       class="cls-1"
       d="m 283.79,461.53 -2.96,-5.05 2.89,-5.29 H 281 l -2.38,3.95 h -3.24 v -3.95 h -2.44 v 10.34 h 2.44 v -3.95 h 3.22 l 2.41,3.95 z" />
    <path
       id="path598"
       class="cls-1"
       d="m 288.24,453.63 h 5.46 v 3.49 h -5.46 z m 7.9,-2.44 H 285.8 v 10.34 h 2.44 v -1.98 h 5.46 v 1.98 h 2.44 z" />
    <path
       id="path600"
       class="cls-1"
       d="m 307.88,451.19 v 2.44 h 3.95 v 7.9 h 2.44 v -7.9 h 3.95 v -2.44 z" />
    <path
       id="path602"
       class="cls-1"
       d="m 322.67,451.19 h -2.44 v 10.34 h 10.34 v -10.34 h -2.44 v 7.9 h -5.46 z" />
    <path
       id="path604"
       class="cls-1"
       d="m 343.44,461.53 -2.96,-5.05 2.89,-5.29 h -2.72 l -2.38,3.95 h -3.24 v -3.95 h -2.44 v 10.34 h 2.44 v -3.95 h 3.22 l 2.41,3.95 z" />
    <path
       id="path606"
       class="cls-1"
       d="m 347.89,451.19 h -2.44 v 10.34 h 10.34 v -10.34 h -2.44 v 7.9 h -5.46 z" />
    <path
       id="path608"
       class="cls-1"
       d="m 357.8,451.19 v 2.44 h 3.95 v 7.9 h 2.44 v -7.9 h 3.95 v -2.44 z" />
    <path
       id="path610"
       class="cls-1"
       d="m 370.15,451.19 v 2.44 h 3.95 v 7.9 h 2.44 v -7.9 h 3.95 v -2.44 z" />
    <path
       id="path612"
       class="cls-1"
       d="m 392.84,453.63 v -2.44 H 382.5 v 10.34 h 10.34 v -2.44 h -7.9 v -1.51 h 7.9 v -2.44 h -7.9 v -1.51 z" />
    <path
       id="path614"
       class="cls-1"
       d="m 409.15,451.19 h -14.29 v 10.34 h 2.44 v -7.9 l 3.49,0.02 v 7.89 h 2.44 v -7.89 l 3.49,-0.02 v 7.9 h 2.44 v -10.34 z" />
    <path
       id="path616"
       class="cls-1"
       d="m 413.6,451.19 h -2.44 v 10.34 h 2.44 z" />
    <path
       id="path618"
       class="cls-1"
       d="m 415.61,451.19 v 2.44 h 3.95 v 7.9 H 422 v -7.9 h 3.95 v -2.44 z" />
    <path
       id="path620"
       class="cls-1"
       d="m 430.4,453.63 h 5.46 v 3.49 h -5.46 z m 7.9,-2.44 h -10.34 v 10.34 h 2.44 v -1.98 h 5.46 v 1.98 h 2.44 z" />
    <path
       id="path622"
       class="cls-3"
       d="m 343.92,393.13 h 3.49 v -1.71 h -3.49 z" />
    <path
       id="path624"
       class="cls-3"
       d="m 357.59,393.13 h 3.49 v -1.71 h -3.49 z" />
    <path
       id="path626"
       class="cls-3"
       d="m 358.68,383.2 h 5.03 v -1.48 h -5.03 z" />
    <path
       id="path627"
       class="cls-3"
       d="m 341.29,383.2 h 5.03 v -1.48 h -5.03 z" />
    <path
       id="path628"
       class="cls-2"
       d="m 346.32,383.2 h 12.36 v -8.75 h -12.36 z" />
    <path
       id="path630"
       class="cls-1"
       d="m 345.73,416.16 h -4.46 v 6.73 h 4.46 z m 0,-10.77 h -4.46 v 6.25 h 4.46 z m 18.08,10.77 h -4.46 v 6.73 h 4.46 z m 0,-10.77 h -4.46 v 6.25 h 4.46 z m 15.83,-12.27 v 4.52 h -18.38 v 3.22 h 16.48 v 26.49 h -16.48 v 2.14 h 11.72 l 8.75,15.71 h -14.34 l -6.78,-14.11 0.65,15.59 h -17.49 l 0.65,-15.59 -6.72,14.11 h -14.4 l 8.75,-15.71 h 11.72 v -2.14 h -16.48 v -26.49 h 16.48 v -3.22 h -18.38 v -4.52" />
    <path
       id="path632"
       class="cls-1"
       d="M 341.29,391.41 H 363.7 V 383.2 H 341.29 Z" />
    <path
       id="path634"
       class="cls-1"
       d="m 262.72,430.96 -35.23,-29.23 v -4.54 l 35.23,29.37 v 4.41 z m -0.4,-39.92 v 28.39 L 227.7,391.04 h -5.77 v 53.99 h 5.47 v -33.15 l 40.34,34.88 v -55.72 h -5.41 z" />
    <path
       id="path636"
       class="cls-1"
       d="m 272.26,392.53 v 4.76 h 15.95 v 49.23 h 3.41 v -48.83 h 3.49 v 48.83 h 11.19 v -49.23 h 15.53 v -4.76 h -49.56 z" />
    <path
       id="path638"
       class="cls-1"
       d="M 420.33,405.98 H 402.9 v 13.1 h 17.43 z m -19.27,40.66 -2.2,-8.93 -1.61,6.61 H 383.8 l 4.7,-17.68 h 13.03 l -1.96,8.15 h 4.52 V 423.6 h -16 v -22.14 h 47.24 v 22.14 h -14.52 v 23.04 z m 24.81,-2.32 -3.39,-17.68 h 13.27 l 3.63,17.68 h -13.5 z m 13.5,-50.78 v 4.64 H 383.8 v -4.64" />
    <path
       id="path640"
       class="cls-3"
       d="m 405.36,393.54 h 3.49 v -2.13 h -3.49 z" />
    <path
       id="path642"
       class="cls-3"
       d="m 414.68,393.54 h 3.49 v -2.13 h -3.49 z" />
    <path
       id="path644"
       class="cls-4"
       d="m 420.65,377.23 c 0,-4.91 -3.98,-8.9 -8.89,-8.9 -4.91,0 -8.89,3.98 -8.89,8.9 m -3.15,14.18 h 24.09 v -4.46 h -24.09 z m 3.15,-14.18 h 17.78 v 9.72 h -17.78 z" />
  </g>
</svg>
