<?xml version="1.0" encoding="UTF-8" standalone="no"?><!DOCTYPE svg PUBLIC "-//W3C//DTD SVG 1.1//EN" "http://www.w3.org/Graphics/SVG/1.1/DTD/svg11.dtd"><svg width="100%" height="100%" viewBox="0 0 534 534" version="1.1" xmlns="http://www.w3.org/2000/svg" xmlns:xlink="http://www.w3.org/1999/xlink" xml:space="preserve" xmlns:serif="http://www.serif.com/" style="fill-rule:evenodd;clip-rule:evenodd;stroke-linecap:round;stroke-linejoin:round;stroke-miterlimit:1.5;"><rect id="botamochi-dark" x="0" y="0" width="533.333" height="533.333" style="fill:none;"/><clipPath id="_clip1"><rect x="0" y="0" width="533.333" height="533.333"/></clipPath><g clip-path="url(#_clip1)"><path d="M533.333,133.333c0,-73.589 -59.744,-133.333 -133.333,-133.333l-266.667,-0c-73.588,-0 -133.333,59.744 -133.333,133.333l-0,266.667c-0,73.589 59.745,133.334 133.333,133.334l266.667,-0c73.589,-0 133.333,-59.745 133.333,-133.334l0,-266.667Z" style="fill:#fdf6e3;"/><path d="M506.174,285.491c-0,-90.569 -103.973,-169.587 -239.507,-169.587c-163.562,0 -239.507,99.903 -239.507,169.423c-0,47.425 24.587,115.057 239.507,115.131c214.919,0.074 239.507,-67.541 239.507,-114.967Z" style="fill:#002b36;"/><path d="M506.174,285.491c-0,-90.569 -103.973,-169.587 -239.507,-169.587c-163.562,0 -239.507,99.903 -239.507,169.423c-0,47.425 24.587,115.057 239.507,115.131c214.919,0.074 239.507,-67.541 239.507,-114.967Zm-22.917,-0c-0,21.901 -7.642,48.802 -48.821,67.281c-33.761,15.151 -86.392,24.798 -167.761,24.77c-81.371,-0.028 -134.004,-9.712 -167.765,-24.886c-41.189,-18.512 -48.834,-45.424 -48.834,-67.329c0,-61.964 70.806,-146.506 216.591,-146.506c74.489,-0 138.804,25.41 178.151,64.175c23.977,23.623 38.439,52.162 38.439,82.495Z" style="fill:#657b83;"/><path d="M422.143,207.953c-1.679,0.966 -3.841,0.391 -4.812,-1.292c-0.967,-1.679 -0.392,-3.838 1.291,-4.808c1.68,-0.971 3.842,-0.392 4.813,1.287c0.967,1.679 0.387,3.842 -1.292,4.813m-18.871,-4.125c-1.679,0.966 -3.841,0.391 -4.812,-1.292c-0.971,-1.679 -0.392,-3.842 1.287,-4.808c1.684,-0.975 3.842,-0.392 4.813,1.287c0.971,1.683 0.392,3.842 -1.288,4.813m-31.72,131.775c-1.68,0.97 -3.838,0.387 -4.809,-1.288c-0.971,-1.679 -0.391,-3.842 1.288,-4.812c1.679,-0.971 3.841,-0.392 4.812,1.287c0.967,1.683 0.392,3.842 -1.291,4.813m-16.196,-7.471c-1.679,0.966 -3.842,0.391 -4.813,-1.292c-0.971,-1.679 -0.387,-3.842 1.288,-4.808c1.683,-0.971 3.841,-0.392 4.812,1.287c0.971,1.679 0.392,3.842 -1.287,4.813m-18.675,-97.275c-1.679,0.971 -3.842,0.391 -4.813,-1.288c-0.966,-1.679 -0.391,-3.837 1.292,-4.812c1.679,-0.967 3.837,-0.392 4.808,1.291c0.971,1.68 0.392,3.842 -1.287,4.809m-3.038,-28.167c-1.683,0.971 -3.841,0.392 -4.812,-1.287c-0.967,-1.684 -0.392,-3.842 1.291,-4.817c1.68,-0.967 3.838,-0.388 4.809,1.292c0.971,1.679 0.391,3.841 -1.288,4.812m114.309,14.208l-5.167,-8.954l-0.063,0.038l-1.962,-3.409l4.925,-18.379l-6.804,-1.821l-5.679,21.2l3.425,5.93l-0.034,0.016l5.167,8.954l-6.188,3.571l-9.125,-15.804c1.142,-2.087 1.313,-4.654 0.038,-6.858c-1.946,-3.371 -6.258,-4.525 -9.625,-2.579c-3.367,1.945 -4.521,6.258 -2.579,9.62c1.279,2.217 3.596,3.35 5.979,3.4l9.121,15.8l-6.192,3.571l-15.625,-27.062c1.154,-2.088 1.325,-4.663 0.046,-6.875c-1.942,-3.367 -6.254,-4.521 -9.621,-2.584c-3.367,1.946 -4.521,6.259 -2.579,9.625c1.275,2.209 3.579,3.346 5.958,3.396l15.629,27.075l-6.191,3.575l-5.167,-8.95l-0.058,0.029l-21.509,-37.245l8.125,-30.309l-6.804,-1.821l-8.879,33.125l22.967,39.775l-0.034,0.017l5.171,8.95l-6.191,3.579l-5.171,-8.958l-0.042,0.029l-30.117,-52.158l9.592,-35.821l-6.8,-1.825l-10.35,38.642l31.571,54.687l-0.042,0.025l5.167,8.95l-6.192,3.575l-5.166,-8.954l-0.025,0.017l-23.63,-40.925l-18.683,-5c-0.154,-0.563 -0.25,-1.134 -0.558,-1.663c-1.942,-3.362 -6.254,-4.521 -9.621,-2.575c-3.367,1.942 -4.521,6.254 -2.579,9.625c1.941,3.363 6.258,4.521 9.625,2.575c0.525,-0.304 0.896,-0.75 1.312,-1.162l15.863,4.25l22.166,38.4l-0.062,0.037l5.171,8.95l-6.192,3.571l-5.167,-8.95l-12.041,-20.854l-14.859,-3.979c-0.158,-0.584 -0.262,-1.171 -0.579,-1.717c-1.941,-3.367 -6.254,-4.521 -9.621,-2.575c-3.366,1.942 -4.52,6.254 -2.579,9.617c1.942,3.37 6.259,4.525 9.625,2.579c0.509,-0.292 0.863,-0.725 1.267,-1.117l12.104,3.242l10.579,18.329l-0.087,0.046l5.166,8.954l-3.095,1.792c-5.313,3.066 -7.134,9.858 -4.063,15.17l1.783,3.092l-8.95,5.175l0.05,0.083l-36.541,21.1l-8.75,32.634l-61.371,35.425l3.525,6.104l63.892,-36.888l8.75,-32.633l34.016,-19.642l0.004,0.005l8.95,-5.167l3.575,6.187l-5.962,3.442l-30.217,17.446l-9.204,34.329l-51.587,29.783l3.52,6.1l54.113,-31.241l9.204,-34.329l24.7,-14.263l0.058,0.096l8.95,-5.171l3.575,6.192l-19.091,11.016c-2.138,-1.341 -4.896,-1.57 -7.234,-0.22c-3.366,1.945 -4.52,6.258 -2.579,9.625c1.946,3.366 6.259,4.52 9.625,2.579c2.084,-1.204 3.192,-3.329 3.367,-5.563l19.483,-11.246l3.575,6.188l-10.333,5.967c-2.1,-1.184 -4.704,-1.367 -6.942,-0.075c-3.362,1.941 -4.521,6.254 -2.575,9.62c1.942,3.371 6.254,4.525 9.621,2.58c2.188,-1.263 3.317,-3.534 3.392,-5.888l10.412,-6.012l3.575,6.191l-8.95,5.167l0.004,0.012l-30.283,17.488l-5.471,20.446l6.8,1.821l4.721,-17.625l27.754,-16.025l0.046,0.075l8.954,-5.171l3.571,6.191l-8.95,5.171l0.054,0.092l-23.596,13.629l-4.612,17.188l6.804,1.82l3.854,-14.37l24.475,-14.125l-0.004,-0.005l5.55,-3.208l3.575,6.188l-8.954,5.175l1.171,2.016c6.554,-1.525 12.612,-3.179 18.221,-4.946l-48.255,-83.583c-0.883,-1.525 -0.358,-3.475 1.163,-4.358l90.542,-52.275c-1.58,-2.121 -3.238,-4.209 -4.98,-6.267l-5.945,3.433Z" style="fill:#657b83;fill-rule:nonzero;"/><path d="M380.68,279.209c0.004,-2.037 0.967,-4.029 2.862,-5.121c2.83,-1.633 6.446,-0.666 8.075,2.163c0.542,0.937 0.7,1.95 0.7,2.958l5.325,0c0.005,-1.904 -0.433,-3.829 -1.45,-5.6c-3.091,-5.35 -9.937,-7.183 -15.291,-4.091c-3.588,2.07 -5.542,5.825 -5.546,9.691l5.325,0Z" style="fill:#657b83;fill-rule:nonzero;"/><path d="M392.317,279.209c-0.004,2.038 -0.966,4.029 -2.862,5.121c-2.829,1.629 -6.446,0.663 -8.079,-2.167c-0.538,-0.937 -0.696,-1.95 -0.696,-2.954l-5.325,0c-0.004,1.9 0.429,3.829 1.45,5.596c3.092,5.354 9.937,7.183 15.287,4.096c3.588,-2.071 5.546,-5.829 5.55,-9.692l-5.325,0Z" style="fill:#657b83;fill-rule:nonzero;"/><ellipse cx="187.117" cy="247.857" rx="25.336" ry="61.207" style="fill:#91cefa;stroke:#657b83;stroke-width:2.08px;"/><ellipse cx="352.706" cy="247.857" rx="25.336" ry="61.207" style="fill:#91cefa;stroke:#657b83;stroke-width:2.08px;"/></g></svg>